JomhuriaLatin-Regular.ufo
<glyph name="numbersign" format="1">
  <advance width="1275"/>
  <unicode hex="0023"/>
  <outline>
    <contour>
      <point x="717.752" y="545.528" type="line"/>
      <point x="767.148" y="740.455" type="line"/>
      <point x="546.691" y="740.455" type="line"/>
      <point x="497.295" y="545.528" type="line"/>
    </contour>
    <contour>
      <point x="1184.94" y="740.455" type="line"/>
      <point x="967.73" y="740.455" type="line"/>
      <point x="918.333" y="545.528" type="line"/>
      <point x="1135.46" y="545.528" type="line"/>
      <point x="1084.49" y="344.448" type="line"/>
      <point x="867.356" y="344.448" type="line"/>
      <point x="780.039" y="0" type="line"/>
      <point x="579.54" y="0" type="line"/>
      <point x="666.857" y="344.448" type="line"/>
      <point x="446.401" y="344.448" type="line"/>
      <point x="359.083" y="0" type="line"/>
      <point x="158.502" y="0" type="line"/>
      <point x="245.819" y="344.448" type="line"/>
      <point x="40" y="344.448" type="line"/>
      <point x="90.9766" y="545.528" type="line"/>
      <point x="296.796" y="545.528" type="line"/>
      <point x="346.193" y="740.455" type="line"/>
      <point x="140.373" y="740.455" type="line"/>
      <point x="191.351" y="941.535" type="line"/>
      <point x="397.171" y="941.535" type="line"/>
      <point x="484.488" y="1289.48" type="line"/>
      <point x="685.07" y="1289.48" type="line"/>
      <point x="597.753" y="941.535" type="line"/>
      <point x="818.208" y="941.535" type="line"/>
      <point x="905.527" y="1289.48" type="line"/>
      <point x="1106.02" y="1289.48" type="line"/>
      <point x="1018.71" y="941.535" type="line"/>
      <point x="1235.92" y="941.535" type="line"/>
    </contour>
  </outline>
</glyph>
<glyph name="dollar" format="1">
  <advance width="1025"/>
  <unicode hex="0024"/>
  <outline>
    <contour>
      <point x="965.445" y="445.238" type="curve" smooth="yes"/>
      <point x="965.445" y="260.955"/>
      <point x="800.954" y="113.348"/>
      <point x="580.332" y="87.5684" type="curve"/>
      <point x="580.332" y="0" type="line"/>
      <point x="435.633" y="0" type="line"/>
      <point x="435.633" y="87.9834" type="line"/>
      <point x="309.231" y="103.451"/>
      <point x="213.348" y="151.268"/>
      <point x="213.348" y="151.268" type="curve"/>
      <point x="213.348" y="83.0771" type="line"/>
      <point x="86.6943" y="83.0771" type="line"/>
      <point x="86.6943" y="426.194" type="line"/>
      <point x="214.096" y="426.194" type="line"/>
      <point x="214.096" y="426.194"/>
      <point x="202.786" y="264.199"/>
      <point x="435.633" y="253.555" type="curve"/>
      <point x="435.633" y="504.697" type="line"/>
      <point x="359.293" y="527.981"/>
      <point x="274.553" y="553.928"/>
      <point x="207.276" y="599.831" type="curve" smooth="yes"/>
      <point x="105.489" y="669.271"/>
      <point x="60" y="749.104"/>
      <point x="60" y="858.875" type="curve" smooth="yes"/>
      <point x="60" y="1033.68"/>
      <point x="219.585" y="1181.54"/>
      <point x="435.633" y="1198.5" type="curve"/>
      <point x="435.633" y="1289.48" type="line"/>
      <point x="580.332" y="1289.48" type="line"/>
      <point x="580.332" y="1190.77" type="line"/>
      <point x="683.949" y="1172.22"/>
      <point x="750.81" y="1132.55"/>
      <point x="750.81" y="1132.55" type="curve"/>
      <point x="750.81" y="1200.25" type="line"/>
      <point x="877.462" y="1200.25" type="line"/>
      <point x="877.462" y="857.96" type="line"/>
      <point x="750.061" y="857.96" type="line"/>
      <point x="750.061" y="857.96"/>
      <point x="773.761" y="997.502"/>
      <point x="580.332" y="1025.44" type="curve"/>
      <point x="580.332" y="798.417" type="line"/>
      <point x="649.104" y="779.79"/>
      <point x="722.784" y="761.079"/>
      <point x="782.077" y="732.389" type="curve" smooth="yes"/>
      <point x="903.075" y="674.011"/>
      <point x="965.445" y="570.311"/>
    </contour>
    <contour>
      <point x="355.302" y="926.983" type="curve" smooth="yes"/>
      <point x="358.378" y="888.23"/>
      <point x="387.235" y="860.953"/>
      <point x="430.561" y="839.166" type="curve"/>
      <point x="430.561" y="1025.78" type="line"/>
      <point x="385.571" y="1011.72"/>
      <point x="350.895" y="982.284"/>
    </contour>
    <contour>
      <point x="586.485" y="273.763" type="line"/>
      <point x="632.224" y="297.795"/>
      <point x="655.009" y="337.214"/>
      <point x="645.612" y="390.437" type="curve" smooth="yes"/>
      <point x="640.373" y="420.29"/>
      <point x="618.585" y="442.411"/>
      <point x="586.485" y="460.789" type="curve"/>
    </contour>
  </outline>
</glyph>
<glyph name="ampersand" format="1">
  <advance width="1322"/>
  <unicode hex="0026"/>
  <outline>
    <contour>
      <point x="1262.65" y="626.051" type="line"/>
      <point x="1262.65" y="372.33" type="line"/>
      <point x="1094.42" y="263.558" type="line"/>
      <point x="1152.63" y="159.108" type="line"/>
      <point x="1226.98" y="159.108" type="line"/>
      <point x="1226.98" y="0" type="line"/>
      <point x="765.332" y="0" type="line"/>
      <point x="721.613" y="80.6055" type="line"/>
      <point x="721.613" y="80.6055"/>
      <point x="642.197" y="-35.9844"/>
      <point x="457.332" y="-35.9844" type="curve" smooth="yes"/>
      <point x="232.302" y="-35.9844"/>
      <point x="39.9531" y="86.4258"/>
      <point x="4.61035" y="323.266" type="curve" smooth="yes"/>
      <point x="-28.3213" y="544.305"/>
      <point x="118.705" y="744.387"/>
      <point x="333.092" y="780.395" type="curve"/>
      <point x="196.543" y="1053.49"/>
      <point x="358.538" y="1324.72"/>
      <point x="655.918" y="1324.72" type="curve" smooth="yes"/>
      <point x="958.952" y="1324.72"/>
      <point x="1096.17" y="911.787"/>
      <point x="805.355" y="777.9" type="curve"/>
      <point x="989.805" y="449.669" type="line"/>
    </contour>
    <contour>
      <point x="311.221" y="331.498" type="curve" smooth="yes"/>
      <point x="413.091" y="86.2598"/>
      <point x="654.171" y="195.117"/>
      <point x="654.171" y="195.034" type="curve" smooth="yes"/>
      <point x="401.865" y="645.344" type="line"/>
      <point x="341.49" y="624.72"/>
      <point x="249.932" y="479.023"/>
    </contour>
    <contour>
      <point x="755.46" y="866.715" type="line"/>
      <point x="789.057" y="891.746"/>
      <point x="826.812" y="943.971"/>
      <point x="828.142" y="993.534" type="curve" smooth="yes"/>
      <point x="829.806" y="1056.65"/>
      <point x="790.554" y="1117.28"/>
      <point x="727.352" y="1118.94" type="curve" smooth="yes"/>
      <point x="687.686" y="1119.94"/>
      <point x="639.369" y="1085.43"/>
      <point x="673.88" y="1011.91" type="curve"/>
    </contour>
  </outline>
</glyph>
<glyph name="quotesingle" format="1">
  <advance width="319"/>
  <unicode hex="0027"/>
  <outline>
    <contour>
      <point x="257.418" y="1725.04" type="curve" smooth="yes"/>
      <point x="294.269" y="1675.16"/>
      <point x="275.429" y="1606.17"/>
      <point x="271.271" y="1593.15" type="curve" smooth="yes"/>
      <point x="230.819" y="1463.48"/>
      <point x="224.724" y="1359.58"/>
      <point x="224.169" y="1320.79" type="curve" smooth="yes"/>
      <point x="223.615" y="1289.48" type="line"/>
      <point x="96.1621" y="1289.48" type="line"/>
      <point x="95.6074" y="1320.79" type="line" smooth="yes"/>
      <point x="95.0537" y="1359.58"/>
      <point x="88.958" y="1463.48"/>
      <point x="48.5059" y="1592.87" type="curve" smooth="yes"/>
      <point x="44.3496" y="1606.17"/>
      <point x="25.5088" y="1674.88"/>
      <point x="62.3594" y="1725.04" type="curve" smooth="yes"/>
      <point x="77.0449" y="1744.98"/>
      <point x="106.137" y="1768.81"/>
      <point x="159.889" y="1768.81" type="curve" smooth="yes"/>
      <point x="213.641" y="1768.81"/>
      <point x="242.733" y="1744.98"/>
    </contour>
  </outline>
</glyph>
<glyph name="plus" format="1">
  <advance width="1148"/>
  <unicode hex="002B"/>
  <outline>
    <contour>
      <point x="1068.04" y="594.597" type="line"/>
      <point x="1068.04" y="393.721" type="line"/>
      <point x="674.599" y="393.721" type="line"/>
      <point x="674.599" y="0" type="line"/>
      <point x="473.443" y="0" type="line"/>
      <point x="473.443" y="393.721" type="line"/>
      <point x="80" y="393.721" type="line"/>
      <point x="80" y="594.597" type="line"/>
      <point x="473.443" y="594.597" type="line"/>
      <point x="473.443" y="986.5" type="line"/>
      <point x="674.599" y="986.5" type="line"/>
      <point x="674.599" y="594.597" type="line"/>
    </contour>
  </outline>
</glyph>
<glyph name="period" format="1">
  <advance width="409"/>
  <unicode hex="002E"/>
  <outline>
    <contour>
      <point x="204.581" y="329.162" type="curve" smooth="yes"/>
      <point x="295.461" y="329.162"/>
      <point x="369.162" y="255.461"/>
      <point x="369.162" y="164.581" type="curve" smooth="yes"/>
      <point x="369.162" y="73.7012"/>
      <point x="295.461" y="0"/>
      <point x="204.581" y="0" type="curve" smooth="yes"/>
      <point x="113.701" y="0"/>
      <point x="40" y="73.7012"/>
      <point x="40" y="164.581" type="curve" smooth="yes"/>
      <point x="40" y="255.461"/>
      <point x="113.701" y="329.162"/>
    </contour>
  </outline>
</glyph>
<glyph name="zero" format="1">
  <advance width="1100"/>
  <unicode hex="0030"/>
  <outline>
    <contour>
      <point x="897.252" y="1094.99" type="curve" smooth="yes"/>
      <point x="973.495" y="982.295"/>
      <point x="1020.52" y="834.261"/>
      <point x="1020.52" y="671.756" type="curve" smooth="yes"/>
      <point x="1020.52" y="495.061"/>
      <point x="973.217" y="334.504"/>
      <point x="896.139" y="212.069" type="curve" smooth="yes"/>
      <point x="809.878" y="74.8867"/>
      <point x="685.495" y="-20"/>
      <point x="547.2" y="-20" type="curve" smooth="yes"/>
      <point x="408.904" y="-20"/>
      <point x="288.417" y="67.6514"/>
      <point x="203.27" y="193.426" type="curve" smooth="yes"/>
      <point x="126.748" y="306.121"/>
      <point x="80" y="454.156"/>
      <point x="80" y="616.66" type="curve" smooth="yes"/>
      <point x="80" y="793.356"/>
      <point x="127.305" y="953.913"/>
      <point x="204.383" y="1076.35" type="curve" smooth="yes"/>
      <point x="290.644" y="1213.53"/>
      <point x="403.061" y="1308.7"/>
      <point x="553.321" y="1308.7" type="curve" smooth="yes"/>
      <point x="700.8" y="1308.7"/>
      <point x="812.104" y="1220.76"/>
    </contour>
    <contour>
      <point x="633.739" y="264.66" type="curve" smooth="yes"/>
      <point x="633.739" y="1024.31" type="line" smooth="yes"/>
      <point x="633.739" y="1070.5"/>
      <point x="596.452" y="1108.07"/>
      <point x="550.261" y="1108.07" type="curve" smooth="yes"/>
      <point x="504.069" y="1108.07"/>
      <point x="466.782" y="1070.5"/>
      <point x="466.782" y="1024.31" type="curve" smooth="yes"/>
      <point x="466.782" y="264.66" type="line" smooth="yes"/>
      <point x="466.782" y="218.469"/>
      <point x="504.069" y="180.904"/>
      <point x="550.261" y="180.904" type="curve" smooth="yes"/>
      <point x="596.452" y="180.904"/>
      <point x="633.739" y="218.469"/>
    </contour>
    <contour>
      <point x="86.7988" y="312.194" type="move" smooth="yes"/>
    </contour>
  </outline>
</glyph>
<glyph name="equal" format="1">
  <advance width="1148"/>
  <unicode hex="003D"/>
  <outline>
    <contour>
      <point x="80" y="192.842" type="line"/>
      <point x="80" y="393.922" type="line"/>
      <point x="1068" y="393.922" type="line"/>
      <point x="1068" y="192.842" type="line"/>
    </contour>
    <contour>
      <point x="80" y="594.92" type="line"/>
      <point x="80" y="796" type="line"/>
      <point x="1068" y="796" type="line"/>
      <point x="1068" y="594.92" type="line"/>
    </contour>
  </outline>
</glyph>
<glyph name="C" format="1">
  <advance width="1170"/>
  <unicode hex="0043"/>
  <outline>
    <contour>
      <point x="956.658" y="379.626" type="curve"/>
      <point x="1090.21" y="245.523" type="line"/>
      <point x="1027.59" y="104.216"/>
      <point x="864.67" y="-35.9824"/>
      <point x="663.792" y="-35.9824" type="curve" smooth="yes"/>
      <point x="341.835" y="-35.9824"/>
      <point x="80" y="256.606"/>
      <point x="80" y="616.247" type="curve" smooth="yes"/>
      <point x="80" y="1006.92"/>
      <point x="328.812" y="1324.72"/>
      <point x="654.094" y="1324.72" type="curve" smooth="yes"/>
      <point x="826.987" y="1324.72"/>
      <point x="914.266" y="1242.43"/>
      <point x="914.543" y="1242.15" type="curve" smooth="yes"/>
      <point x="914.543" y="1324.72" type="line"/>
      <point x="1061.95" y="1324.72" type="line"/>
      <point x="1061.95" y="908.003" type="line"/>
      <point x="913.712" y="908.003" type="line"/>
      <point x="913.712" y="908.003"/>
      <point x="911.771" y="1117.47"/>
      <point x="707.292" y="1117.47" type="curve" smooth="yes"/>
      <point x="593.416" y="1117.47"/>
      <point x="500.873" y="1029.92"/>
      <point x="500.873" y="918.532" type="curve" smooth="yes"/>
      <point x="500.873" y="371.037" type="line" smooth="yes"/>
      <point x="500.873" y="259.654"/>
      <point x="594.523" y="169.328"/>
      <point x="707.292" y="169.328" type="curve" smooth="yes"/>
      <point x="896.811" y="169.328"/>
      <point x="950.562" y="355.799"/>
    </contour>
  </outline>
</glyph>
<glyph name="E" format="1">
  <advance width="1118"/>
  <unicode hex="0045"/>
  <outline>
    <contour>
      <point x="883.307" y="393.442" type="line"/>
      <point x="1028.77" y="393.442" type="line"/>
      <point x="1028.77" y="0" type="line"/>
      <point x="105.563" y="0" type="line"/>
      <point x="105.563" y="1098.87" type="line"/>
      <point x="0" y="1098.87" type="line"/>
      <point x="0" y="1289.48" type="line"/>
      <point x="975.294" y="1289.48" type="line"/>
      <point x="975.294" y="889.956" type="line"/>
      <point x="829.831" y="889.956" type="line"/>
      <point x="829.554" y="1037.08" type="line" smooth="yes"/>
      <point x="829.554" y="1081.97"/>
      <point x="810.714" y="1097.76"/>
      <point x="789.102" y="1098.87" type="curve" smooth="yes"/>
      <point x="488.755" y="1098.87" type="line"/>
      <point x="488.755" y="775.248" type="line"/>
      <point x="624.521" y="775.525" type="line"/>
      <point x="624.521" y="841.191" type="line"/>
      <point x="769.983" y="841.191" type="line"/>
      <point x="769.983" y="513.691" type="line"/>
      <point x="624.521" y="513.691" type="line"/>
      <point x="624.521" y="580.188" type="line"/>
      <point x="488.755" y="580.188" type="line"/>
      <point x="488.755" y="184.253" type="line"/>
      <point x="834.542" y="184.253" type="line" smooth="yes"/>
      <point x="869.452" y="188.132"/>
      <point x="883.029" y="205.311"/>
      <point x="883.029" y="225.26" type="curve" smooth="yes"/>
    </contour>
  </outline>
</glyph>
<glyph name="J" format="1">
  <advance width="980"/>
  <unicode hex="004A"/>
  <outline>
    <contour>
      <point x="401.478" y="1289.48" type="line"/>
      <point x="890.511" y="1289.48" type="line"/>
      <point x="890.511" y="397.912" type="line" smooth="yes"/>
      <point x="890.511" y="158.797"/>
      <point x="787.994" y="-35.9844"/>
      <point x="403.694" y="-35.9844" type="curve" smooth="yes"/>
      <point x="221.936" y="-35.9844"/>
      <point x="73.9785" y="35.501"/>
      <point x="0" y="171.267" type="curve"/>
      <point x="110.275" y="283.479" type="line"/>
      <point x="151.559" y="192.046"/>
      <point x="251.858" y="157.689"/>
      <point x="328.608" y="157.689" type="curve" smooth="yes"/>
      <point x="427.245" y="157.689"/>
      <point x="507.319" y="221.971"/>
      <point x="507.319" y="375.746" type="curve" smooth="yes"/>
      <point x="507.319" y="1100.57" type="line"/>
      <point x="401.478" y="1100.57" type="line"/>
    </contour>
  </outline>
</glyph>
<glyph name="L" format="1">
  <advance width="1118"/>
  <unicode hex="004C"/>
  <outline>
    <contour>
      <point x="883.307" y="393.165" type="line"/>
      <point x="883.307" y="393.442" type="line"/>
      <point x="1028.77" y="393.442" type="line"/>
      <point x="1028.77" y="0" type="line"/>
      <point x="105.563" y="0" type="line"/>
      <point x="105.563" y="1098.87" type="line"/>
      <point x="0" y="1098.87" type="line"/>
      <point x="0" y="1289.48" type="line"/>
      <point x="488.755" y="1289.48" type="line"/>
      <point x="488.755" y="183.976" type="line"/>
      <point x="834.542" y="183.976" type="line" smooth="yes"/>
      <point x="869.452" y="187.854"/>
      <point x="883.029" y="205.033"/>
      <point x="883.029" y="224.982" type="curve" smooth="yes"/>
    </contour>
  </outline>
</glyph>
<glyph name="M" format="1">
  <advance width="1554"/>
  <unicode hex="004D"/>
  <outline>
    <contour>
      <point x="1056.33" y="1289.48" type="line"/>
      <point x="1464.33" y="1289.48" type="line"/>
      <point x="1464.33" y="0" type="line"/>
      <point x="1081.14" y="0" type="line"/>
      <point x="1081.14" y="738.121" type="line"/>
      <point x="845.326" y="0" type="line"/>
      <point x="576.326" y="0" type="line"/>
      <point x="306.719" y="779.128" type="line"/>
      <point x="306.719" y="0.277344" type="line"/>
      <point x="105.841" y="0.277344" type="line"/>
      <point x="105.841" y="1099.15" type="line"/>
      <point x="0" y="1099.15" type="line"/>
      <point x="0" y="1289.48" type="line"/>
      <point x="522.326" y="1289.48" type="line"/>
      <point x="797.691" y="472.132" type="line"/>
    </contour>
  </outline>
</glyph>
<glyph name="R" format="1">
  <advance width="1206"/>
  <unicode hex="0052"/>
  <outline>
    <contour>
      <point x="1106.03" y="0" type="line"/>
      <point x="713.032" y="0" type="line"/>
      <point x="489.31" y="495.405" type="line"/>
      <point x="489.032" y="0" type="line"/>
      <point x="106.119" y="0" type="line"/>
      <point x="106.119" y="1099.15" type="line"/>
      <point x="0" y="1099.15" type="line"/>
      <point x="0" y="1289.48" type="line"/>
      <point x="689.633" y="1289.48" type="line" smooth="yes"/>
      <point x="927.639" y="1289.48"/>
      <point x="1126.02" y="1111.06"/>
      <point x="1126.02" y="897.714" type="curve" smooth="yes"/>
      <point x="1126.02" y="725.652"/>
      <point x="1019.35" y="587.671"/>
      <point x="868.899" y="526.438" type="curve"/>
    </contour>
    <contour>
      <point x="489.31" y="1089.45" type="line"/>
      <point x="489.31" y="691.019" type="line"/>
      <point x="625.629" y="691.019" type="line" smooth="yes"/>
      <point x="689.633" y="691.019"/>
      <point x="743.386" y="748.65"/>
      <point x="743.386" y="817.087" type="curve" smooth="yes"/>
      <point x="743.386" y="963.38" type="line" smooth="yes"/>
      <point x="743.386" y="1031.82"/>
      <point x="689.356" y="1089.45"/>
      <point x="625.629" y="1089.45" type="curve" smooth="yes"/>
    </contour>
  </outline>
</glyph>
<glyph name="U" format="1">
  <advance width="1137"/>
  <unicode hex="0055"/>
  <outline>
    <contour>
      <point x="1046.23" y="1289.48" type="line"/>
      <point x="1047.61" y="390.984" type="line" smooth="yes"/>
      <point x="1048.04" y="113.636"/>
      <point x="855.322" y="-35.9844"/>
      <point x="592.381" y="-35.9844" type="curve" smooth="yes"/>
      <point x="208.081" y="-35.9844"/>
      <point x="105.564" y="158.798"/>
      <point x="105.564" y="397.911" type="curve" smooth="yes"/>
      <point x="105.564" y="1100.84" type="line"/>
      <point x="0" y="1100.84" type="line"/>
      <point x="0" y="1289.48" type="line"/>
      <point x="488.756" y="1289.48" type="line"/>
      <point x="488.756" y="376.022" type="line" smooth="yes"/>
      <point x="488.756" y="222.524"/>
      <point x="568.83" y="157.966"/>
      <point x="667.468" y="157.966" type="curve" smooth="yes"/>
      <point x="766.104" y="157.966"/>
      <point x="846.08" y="214.489"/>
      <point x="846.179" y="377.13" type="curve" smooth="yes"/>
      <point x="846.733" y="1289.48" type="line"/>
    </contour>
  </outline>
</glyph>
<glyph name="Y" format="1">
  <advance width="1410"/>
  <unicode hex="0059"/>
  <outline>
    <contour>
      <point x="1320.18" y="1289.48" type="line"/>
      <point x="869.176" y="457.17" type="line"/>
      <point x="869.176" y="0" type="line"/>
      <point x="485.985" y="0" type="line"/>
      <point x="485.985" y="396.49" type="line"/>
      <point x="101.686" y="1098.31" type="line"/>
      <point x="0" y="1099.15" type="line"/>
      <point x="0" y="1289.48" type="line"/>
      <point x="404.176" y="1289.48" type="line"/>
      <point x="754.469" y="646.133" type="line"/>
      <point x="1102.18" y="1289.48" type="line"/>
    </contour>
  </outline>
</glyph>
<glyph name="bracketleft" format="1">
  <advance width="430"/>
  <unicode hex="005B"/>
  <outline>
    <contour>
      <point x="380.885" y="1629.48" type="line"/>
      <point x="0" y="1629.48" type="line"/>
      <point x="0" y="-595" type="line"/>
      <point x="380.885" y="-595" type="line"/>
      <point x="380.885" y="-451.384" type="line"/>
      <point x="202.922" y="-451.384" type="line"/>
      <point x="202.922" y="1485.86" type="line"/>
      <point x="380.885" y="1485.86" type="line"/>
    </contour>
  </outline>
</glyph>
<glyph name="backslash" format="1">
  <advance width="1052"/>
  <unicode hex="005C"/>
  <outline>
    <contour>
      <point x="803.188" y="0" type="line"/>
      <point x="1032.19" y="0" type="line"/>
      <point x="249.188" y="1289.48" type="line"/>
      <point x="20" y="1289.48" type="line"/>
    </contour>
  </outline>
</glyph>
<glyph name="b" format="1">
  <advance width="1165"/>
  <unicode hex="0062"/>
  <outline>
    <contour>
      <point x="699.608" y="1010.48" type="curve" smooth="yes"/>
      <point x="926.808" y="1010.48"/>
      <point x="1085.57" y="810.713"/>
      <point x="1085.29" y="524.775" type="curve" smooth="yes"/>
      <point x="1085.29" y="127.73"/>
      <point x="888.018" y="-13.0225"/>
      <point x="719.003" y="-13.0225" type="curve" smooth="yes"/>
      <point x="570.215" y="-13.0225"/>
      <point x="475.733" y="93.0967"/>
      <point x="475.733" y="93.0967" type="curve"/>
      <point x="475.457" y="0" type="line"/>
      <point x="105.565" y="0" type="line"/>
      <point x="105.565" y="1112.45" type="line"/>
      <point x="0" y="1112.45" type="line"/>
      <point x="0" y="1289.48" type="line"/>
      <point x="475.457" y="1289.48" type="line"/>
      <point x="475.733" y="911.291" type="line"/>
      <point x="475.733" y="911.291"/>
      <point x="546.664" y="1010.48"/>
    </contour>
    <contour>
      <point x="673.562" y="320.573" type="curve" smooth="yes"/>
      <point x="673.562" y="686.862" type="line" smooth="yes"/>
      <point x="673.562" y="764.442"/>
      <point x="610.391" y="827.338"/>
      <point x="533.088" y="827.338" type="curve" smooth="yes"/>
      <point x="475.733" y="828.169" type="line"/>
      <point x="475.733" y="178.989" type="line"/>
      <point x="533.088" y="180.097" type="line" smooth="yes"/>
      <point x="610.667" y="180.097"/>
      <point x="673.562" y="242.992"/>
    </contour>
  </outline>
</glyph>
<glyph name="c" format="1">
  <advance width="1134"/>
  <unicode hex="0063"/>
  <outline>
    <contour>
      <point x="487.297" y="376.667" type="line" smooth="yes"/>
      <point x="487.297" y="261.959"/>
      <point x="582.887" y="168.309"/>
      <point x="700.643" y="168.309" type="curve" smooth="yes"/>
      <point x="838.347" y="168.309"/>
      <point x="906.229" y="264.453"/>
      <point x="935.876" y="328.179" type="curve"/>
      <point x="1054.19" y="209.869" type="line"/>
      <point x="1010.13" y="136.169"/>
      <point x="886.558" y="-23.4258"/>
      <point x="641.626" y="-23.4258" type="curve" smooth="yes"/>
      <point x="290.021" y="-23.4258"/>
      <point x="80" y="169.693"/>
      <point x="80" y="493.037" type="curve" smooth="yes"/>
      <point x="80" y="847.967"/>
      <point x="352.085" y="1009.5"/>
      <point x="605.053" y="1009.5" type="curve" smooth="yes"/>
      <point x="799.003" y="1009.5"/>
      <point x="914.542" y="921.945"/>
      <point x="914.542" y="921.945" type="curve"/>
      <point x="914.542" y="1009.5" type="line"/>
      <point x="1045.6" y="1009.5" type="line"/>
      <point x="1045.6" y="605.806" type="line"/>
      <point x="912.879" y="605.806" type="line"/>
      <point x="908.447" y="641.548"/>
      <point x="877.691" y="817.766"/>
      <point x="700.365" y="817.766" type="curve" smooth="yes"/>
      <point x="582.887" y="817.766"/>
      <point x="487.297" y="724.394"/>
      <point x="487.297" y="609.685" type="curve" smooth="yes"/>
    </contour>
  </outline>
</glyph>
<glyph name="e" format="1">
  <advance width="1136"/>
  <unicode hex="0065"/>
  <outline>
    <contour>
      <point x="487.573" y="376.943" type="line" smooth="yes"/>
      <point x="487.573" y="262.236"/>
      <point x="583.163" y="168.586"/>
      <point x="700.642" y="168.309" type="curve" smooth="yes"/>
      <point x="838.346" y="168.309"/>
      <point x="906.229" y="264.453"/>
      <point x="935.876" y="328.179" type="curve"/>
      <point x="1054.19" y="209.869" type="line"/>
      <point x="962.197" y="54.9863"/>
      <point x="816.458" y="-23.4258"/>
      <point x="621.122" y="-23.4258" type="curve" smooth="yes"/>
      <point x="222.138" y="-23.4258"/>
      <point x="80" y="243.395"/>
      <point x="80" y="493.037" type="curve" smooth="yes"/>
      <point x="80" y="847.967"/>
      <point x="352.084" y="1009.5"/>
      <point x="605.051" y="1009.5" type="curve" smooth="yes"/>
      <point x="782.378" y="1009.5"/>
      <point x="910.662" y="950.483"/>
      <point x="986.58" y="834.113" type="curve" smooth="yes"/>
      <point x="1050.03" y="737.138"/>
      <point x="1055.29" y="631.297"/>
      <point x="1055.57" y="601.096" type="curve" smooth="yes"/>
      <point x="1056.12" y="456.187" type="line"/>
      <point x="487.573" y="456.187" type="line"/>
    </contour>
    <contour>
      <point x="656" y="818.32" type="curve" smooth="yes"/>
      <point x="472" y="818.32"/>
      <point x="487.573" y="619.796"/>
      <point x="487.573" y="619.796" type="curve"/>
      <point x="799" y="619.796" type="line"/>
      <point x="799" y="619.796"/>
      <point x="815" y="818.32"/>
    </contour>
  </outline>
</glyph>
<glyph name="h" format="1">
  <advance width="1123"/>
  <unicode hex="0068"/>
  <outline>
    <contour>
      <point x="477.119" y="890.51" type="line"/>
      <point x="477.119" y="890.51"/>
      <point x="549.713" y="1008.82"/>
      <point x="710.968" y="1009.1" type="curve" smooth="yes"/>
      <point x="936.782" y="1009.1"/>
      <point x="1033.2" y="888.848"/>
      <point x="1033.2" y="607.619" type="curve" smooth="yes"/>
      <point x="1032.93" y="0" type="line"/>
      <point x="663.866" y="0" type="line"/>
      <point x="663.866" y="666.081" type="line" smooth="yes"/>
      <point x="663.866" y="740.336"/>
      <point x="605.681" y="798.522"/>
      <point x="531.148" y="798.522" type="curve" smooth="yes"/>
      <point x="476.288" y="799.353" type="line"/>
      <point x="476.288" y="-0.554688" type="line"/>
      <point x="106.396" y="-0.554688" type="line"/>
      <point x="105.564" y="1111.89" type="line"/>
      <point x="0" y="1111.89" type="line"/>
      <point x="0" y="1289.48" type="line"/>
      <point x="476.288" y="1289.48" type="line"/>
    </contour>
  </outline>
</glyph>
<glyph name="o" format="1">
  <advance width="1198"/>
  <unicode hex="006F"/>
  <outline>
    <contour>
      <point x="598.403" y="1010.2" type="curve" smooth="yes"/>
      <point x="884.342" y="1010.2"/>
      <point x="1116.81" y="778.294"/>
      <point x="1116.81" y="493.464" type="curve" smooth="yes"/>
      <point x="1116.81" y="208.634"/>
      <point x="884.342" y="-23"/>
      <point x="598.403" y="-23" type="curve" smooth="yes"/>
      <point x="312.464" y="-23"/>
      <point x="80" y="208.634"/>
      <point x="80" y="493.464" type="curve" smooth="yes"/>
      <point x="80" y="778.294"/>
      <point x="312.741" y="1010.2"/>
    </contour>
    <contour>
      <point x="753.286" y="269.035" type="curve" smooth="yes"/>
      <point x="753.286" y="718.169" type="line" smooth="yes"/>
      <point x="753.286" y="803.23"/>
      <point x="684.019" y="872.776"/>
      <point x="598.681" y="872.776" type="curve" smooth="yes"/>
      <point x="513.342" y="872.776"/>
      <point x="443.796" y="803.508"/>
      <point x="443.796" y="718.169" type="curve" smooth="yes"/>
      <point x="443.796" y="269.035" type="line" smooth="yes"/>
      <point x="443.796" y="183.974"/>
      <point x="513.342" y="114.429"/>
      <point x="598.681" y="114.429" type="curve" smooth="yes"/>
      <point x="684.019" y="114.429"/>
      <point x="753.286" y="183.696"/>
    </contour>
  </outline>
</glyph>
<glyph name="q" format="1">
  <advance width="1151"/>
  <unicode hex="0071"/>
  <outline>
    <contour>
      <point x="82" y="461.171" type="curve" smooth="yes"/>
      <point x="82" y="858.216"/>
      <point x="279.274" y="999.245"/>
      <point x="448.289" y="999.245" type="curve" smooth="yes"/>
      <point x="602.342" y="999.245"/>
      <point x="691.836" y="893.127"/>
      <point x="691.836" y="893.127" type="curve"/>
      <point x="691.836" y="986.5" type="line"/>
      <point x="1061.73" y="986.5" type="line"/>
      <point x="1061.73" y="-271.408" type="line"/>
      <point x="691.836" y="-271.408" type="line"/>
      <point x="691.836" y="74.9326" type="line"/>
      <point x="691.836" y="74.9326"/>
      <point x="619.243" y="-24.2598"/>
      <point x="467.962" y="-24.2598" type="curve" smooth="yes"/>
      <point x="240.763" y="-24.2598"/>
      <point x="82" y="175.232"/>
    </contour>
    <contour>
      <point x="494.006" y="665.65" type="curve" smooth="yes"/>
      <point x="494.006" y="299.361" type="line" smooth="yes"/>
      <point x="494.006" y="221.781"/>
      <point x="556.901" y="158.886"/>
      <point x="634.204" y="158.886" type="curve" smooth="yes"/>
      <point x="691.836" y="158.054" type="line"/>
      <point x="691.836" y="807.234" type="line"/>
      <point x="634.481" y="806.126" type="line" smooth="yes"/>
      <point x="556.901" y="806.126"/>
      <point x="494.006" y="743.23"/>
    </contour>
  </outline>
</glyph>
<glyph name="s" format="1">
  <advance width="1035"/>
  <unicode hex="0073"/>
  <outline>
    <contour>
      <point x="660.102" y="651.243" type="curve" smooth="yes"/>
      <point x="941.606" y="575.879"/>
      <point x="975.133" y="466.159"/>
      <point x="975.133" y="331.224" type="curve" smooth="yes"/>
      <point x="975.133" y="118.433"/>
      <point x="765.666" y="-23.1523"/>
      <point x="516.578" y="-23.1523" type="curve" smooth="yes"/>
      <point x="299.076" y="-23.1523"/>
      <point x="202.932" y="65.2354"/>
      <point x="202.932" y="65.2354" type="curve"/>
      <point x="202.932" y="-0.431641" type="line"/>
      <point x="70.7686" y="-0.431641" type="line"/>
      <point x="70.7686" y="281.629" type="line"/>
      <point x="203.209" y="281.629" type="line"/>
      <point x="203.209" y="281.629"/>
      <point x="199.054" y="107.904"/>
      <point x="463.657" y="107.904" type="curve" smooth="yes"/>
      <point x="572.27" y="107.904"/>
      <point x="634.057" y="149.188"/>
      <point x="634.057" y="197.398" type="curve" smooth="yes"/>
      <point x="634.057" y="272.485"/>
      <point x="546.225" y="294.373"/>
      <point x="412.122" y="333.44" type="curve" smooth="yes"/>
      <point x="264.72" y="376.387"/>
      <point x="40.5674" y="437.344"/>
      <point x="61.3477" y="679.504" type="curve" smooth="yes"/>
      <point x="77.418" y="870.961"/>
      <point x="251.42" y="1010.05"/>
      <point x="474.463" y="1010.05" type="curve" smooth="yes"/>
      <point x="673.124" y="1010.05"/>
      <point x="767.329" y="922.22"/>
      <point x="767.329" y="922.22" type="curve"/>
      <point x="767.329" y="986.5" type="line"/>
      <point x="898.938" y="986.5" type="line"/>
      <point x="898.938" y="703.886" type="line"/>
      <point x="767.605" y="703.886" type="line"/>
      <point x="767.883" y="723.004"/>
      <point x="765.111" y="776.202"/>
      <point x="726.044" y="819.148" type="curve" smooth="yes"/>
      <point x="690.58" y="858.216"/>
      <point x="635.165" y="878.165"/>
      <point x="561.187" y="878.165" type="curve" smooth="yes"/>
      <point x="484.16" y="878.165"/>
      <point x="424.036" y="838.544"/>
      <point x="424.036" y="787.84" type="curve" smooth="yes"/>
      <point x="424.036" y="718.849"/>
      <point x="538.189" y="683.937"/>
    </contour>
  </outline>
</glyph>
<glyph name="v" format="1">
  <advance width="1136"/>
  <unicode hex="0076"/>
  <outline>
    <contour>
      <point x="0" y="986.5" type="line"/>
      <point x="408.906" y="986.5" type="line"/>
      <point x="644.748" y="294.805" type="line"/>
      <point x="875.906" y="986.5" type="line"/>
      <point x="1046.91" y="986.5" type="line"/>
      <point x="712.906" y="0" type="line"/>
      <point x="372.108" y="0" type="line"/>
      <point x="98.9141" y="815.979" type="line"/>
      <point x="0" y="816.81" type="line"/>
    </contour>
  </outline>
</glyph>
<glyph name="z" format="1">
  <advance width="1058"/>
  <unicode hex="007A"/>
  <outline>
    <contour>
      <point x="243.81" y="767.768" type="curve" smooth="yes"/>
      <point x="243.533" y="699.331" type="line"/>
      <point x="111.37" y="699.331" type="line"/>
      <point x="111.37" y="986.5" type="line"/>
      <point x="976.666" y="986.5" type="line"/>
      <point x="976.666" y="835.928" type="line"/>
      <point x="488.188" y="171.508" type="line"/>
      <point x="789.919" y="170.677" type="line"/>
      <point x="838.962" y="176.219"/>
      <point x="844.227" y="205.864"/>
      <point x="844.227" y="218.332" type="curve" smooth="yes"/>
      <point x="844.504" y="287.047" type="line"/>
      <point x="976.666" y="287.047" type="line"/>
      <point x="976.666" y="0" type="line"/>
      <point x="82" y="0" type="line"/>
      <point x="82" y="193.12" type="line"/>
      <point x="536.676" y="815.146" type="line"/>
      <point x="298.116" y="815.424" type="line"/>
      <point x="249.074" y="809.883"/>
      <point x="243.81" y="780.235"/>
    </contour>
  </outline>
</glyph>
<glyph name="cent" format="1">
  <advance width="1112"/>
  <unicode hex="00A2"/>
  <outline>
    <contour>
      <point x="906.473" y="475.594" type="curve"/>
      <point x="1032.6" y="349.383" type="line"/>
      <point x="973.524" y="216.111"/>
      <point x="819.895" y="83.918"/>
      <point x="630.456" y="83.918" type="curve" smooth="yes"/>
      <point x="326.937" y="83.918"/>
      <point x="80" y="279.091"/>
      <point x="80" y="641.187" type="curve" smooth="yes"/>
      <point x="80" y="981.597"/>
      <point x="314.473" y="1200.03"/>
      <point x="621.398" y="1200.03" type="curve" smooth="yes"/>
      <point x="784.25" y="1200.03"/>
      <point x="866.424" y="1122.51"/>
      <point x="866.839" y="1122.26" type="curve" smooth="yes"/>
      <point x="866.839" y="1200.03" type="line"/>
      <point x="1012.33" y="1200.03" type="line"/>
      <point x="1012.33" y="807.112" type="line"/>
      <point x="866.008" y="807.112" type="line"/>
      <point x="866.008" y="807.112"/>
      <point x="864.181" y="1004.61"/>
      <point x="671.418" y="1004.61" type="curve" smooth="yes"/>
      <point x="563.985" y="1004.61"/>
      <point x="476.826" y="921.939"/>
      <point x="476.826" y="816.917" type="curve" smooth="yes"/>
      <point x="476.826" y="467.533" type="line" smooth="yes"/>
      <point x="476.826" y="362.511"/>
      <point x="564.982" y="277.347"/>
      <point x="671.418" y="277.347" type="curve" smooth="yes"/>
      <point x="849.891" y="277.347"/>
      <point x="900.739" y="453.076"/>
    </contour>
    <contour>
      <point x="593.481" y="0" type="line"/>
      <point x="593.481" y="1289.48" type="line"/>
      <point x="738.054" y="1289.48" type="line"/>
      <point x="738.054" y="0" type="line"/>
    </contour>
  </outline>
</glyph>
<glyph name="currency" format="1">
  <advance width="1434"/>
  <unicode hex="00A4"/>
  <outline>
    <contour>
      <point x="1161.74" y="494.052" type="curve" smooth="yes"/>
      <point x="1161.74" y="407.649"/>
      <point x="1136.55" y="327.15"/>
      <point x="1093.64" y="258.792" type="curve"/>
      <point x="1352.43" y="0" type="line"/>
      <point x="1068.11" y="0" type="line"/>
      <point x="951.183" y="116.923" type="line"/>
      <point x="883.241" y="74.5938"/>
      <point x="803.242" y="49.7295"/>
      <point x="717.421" y="49.7295" type="curve" smooth="yes"/>
      <point x="631.517" y="49.7295"/>
      <point x="551.6" y="74.5938"/>
      <point x="483.575" y="116.923" type="curve"/>
      <point x="366.652" y="0" type="line"/>
      <point x="82.3291" y="0" type="line"/>
      <point x="341.122" y="258.792" type="line"/>
      <point x="298.212" y="327.066"/>
      <point x="273.015" y="407.566"/>
      <point x="273.015" y="494.052" type="curve" smooth="yes"/>
      <point x="273.015" y="579.956"/>
      <point x="297.879" y="659.873"/>
      <point x="340.207" y="727.898" type="curve"/>
      <point x="80" y="986.5" type="line"/>
      <point x="364.407" y="986.5" type="line"/>
      <point x="482.161" y="870.35" type="line"/>
      <point x="550.436" y="913.261"/>
      <point x="630.935" y="938.458"/>
      <point x="717.421" y="938.458" type="curve" smooth="yes"/>
      <point x="803.823" y="938.458"/>
      <point x="884.322" y="913.261"/>
      <point x="952.68" y="870.35" type="curve"/>
      <point x="1070.43" y="986.5" type="line"/>
      <point x="1354.76" y="986.5" type="line"/>
      <point x="1094.55" y="727.898" type="line"/>
      <point x="1136.88" y="659.873"/>
      <point x="1161.74" y="579.873"/>
    </contour>
    <contour>
      <point x="472.349" y="494.052" type="curve" smooth="yes"/>
      <point x="472.349" y="358.917"/>
      <point x="582.286" y="248.979"/>
      <point x="717.421" y="248.979" type="curve" smooth="yes"/>
      <point x="852.555" y="248.979"/>
      <point x="962.492" y="358.917"/>
      <point x="962.492" y="494.052" type="curve" smooth="yes"/>
      <point x="962.492" y="629.187"/>
      <point x="852.555" y="739.124"/>
      <point x="717.421" y="739.124" type="curve" smooth="yes"/>
      <point x="582.286" y="739.124"/>
      <point x="472.349" y="629.187"/>
    </contour>
  </outline>
</glyph>
<glyph name="section" format="1">
  <advance width="931"/>
  <unicode hex="00A7"/>
  <outline>
    <contour>
      <point x="339.583" y="683.265" type="curve" smooth="yes"/>
      <point x="460.996" y="582.31"/>
      <point x="576.256" y="509.711"/>
      <point x="659" y="433.536" type="curve"/>
      <point x="676.131" y="446.76"/>
      <point x="687.274" y="465.47"/>
      <point x="686.359" y="492.414" type="curve" smooth="yes"/>
      <point x="684.862" y="533.827"/>
      <point x="626.65" y="577.902"/>
      <point x="591.974" y="606.759" type="curve" smooth="yes"/>
      <point x="470.477" y="707.798"/>
      <point x="355.217" y="780.313"/>
      <point x="272.64" y="856.487" type="curve"/>
      <point x="255.509" y="843.266"/>
      <point x="244.365" y="824.554"/>
      <point x="245.28" y="797.611" type="curve" smooth="yes"/>
      <point x="246.693" y="756.196"/>
      <point x="304.905" y="712.122"/>
    </contour>
    <contour>
      <point x="533.096" y="885.594" type="curve" smooth="yes"/>
      <point x="703.158" y="751.706"/>
      <point x="844.364" y="654.575"/>
      <point x="854.676" y="537.319" type="curve" smooth="yes"/>
      <point x="866.15" y="407.591"/>
      <point x="791.474" y="343.06"/>
      <point x="740.83" y="301.229" type="curve"/>
      <point x="748.23" y="272.622"/>
      <point x="751.059" y="241.854"/>
      <point x="747.398" y="207.176" type="curve" smooth="yes"/>
      <point x="737.919" y="116.781"/>
      <point x="684.031" y="47.7578"/>
      <point x="631.392" y="13.7461" type="curve" smooth="yes"/>
      <point x="581.495" y="-18.3535"/>
      <point x="522.701" y="-35.9844"/>
      <point x="455.508" y="-35.9844" type="curve" smooth="yes"/>
      <point x="221.829" y="-35.9844"/>
      <point x="60" y="117.779"/>
      <point x="60" y="117.779" type="curve"/>
      <point x="228.315" y="360.106" type="line"/>
      <point x="228.315" y="360.106"/>
      <point x="378.502" y="237.695"/>
      <point x="432.39" y="290.003" type="curve" smooth="yes"/>
      <point x="452.432" y="309.545"/>
      <point x="464.572" y="352.123"/>
      <point x="398.211" y="404.348" type="curve" smooth="yes"/>
      <point x="228.149" y="538.151"/>
      <point x="86.9443" y="635.283"/>
      <point x="76.5488" y="752.621" type="curve" smooth="yes"/>
      <point x="65.0723" y="882.267"/>
      <point x="139.751" y="946.883"/>
      <point x="190.395" y="988.712" type="curve"/>
      <point x="183.076" y="1017.32"/>
      <point x="180.249" y="1048.09"/>
      <point x="183.908" y="1082.77" type="curve" smooth="yes"/>
      <point x="193.388" y="1173.16"/>
      <point x="247.239" y="1242.24"/>
      <point x="299.916" y="1276.2" type="curve" smooth="yes"/>
      <point x="350.228" y="1308.63"/>
      <point x="409.271" y="1324.72"/>
      <point x="477.213" y="1324.72" type="curve" smooth="yes"/>
      <point x="706.733" y="1324.72"/>
      <point x="871.307" y="1172.16"/>
      <point x="871.307" y="1172.16" type="curve"/>
      <point x="702.992" y="929.834" type="line"/>
      <point x="702.992" y="929.834"/>
      <point x="552.806" y="1052.25"/>
      <point x="498.918" y="999.938" type="curve" smooth="yes"/>
      <point x="478.876" y="980.396"/>
      <point x="466.734" y="937.818"/>
    </contour>
  </outline>
</glyph>
<glyph name="copyright" format="1">
  <advance width="1364"/>
  <unicode hex="00A9"/>
  <outline>
    <contour>
      <point x="682.159" y="1289.48" type="curve" smooth="yes"/>
      <point x="1036.25" y="1289.48"/>
      <point x="1324.32" y="999.255"/>
      <point x="1324.32" y="645.16" type="curve" smooth="yes"/>
      <point x="1324.32" y="291.065"/>
      <point x="1036.25" y="0"/>
      <point x="682.159" y="0" type="curve" smooth="yes"/>
      <point x="328.064" y="0"/>
      <point x="40" y="291.065"/>
      <point x="40" y="645.16" type="curve" smooth="yes"/>
      <point x="40" y="999.255"/>
      <point x="328.064" y="1289.48"/>
    </contour>
    <contour>
      <point x="682.159" y="200.754" type="curve" smooth="yes"/>
      <point x="927.149" y="200.754"/>
      <point x="1126.48" y="400.172"/>
      <point x="1126.48" y="645.16" type="curve" smooth="yes"/>
      <point x="1126.48" y="890.149"/>
      <point x="927.149" y="1089.48"/>
      <point x="682.159" y="1089.48" type="curve" smooth="yes"/>
      <point x="437.17" y="1089.48"/>
      <point x="237.837" y="890.232"/>
      <point x="237.837" y="645.16" type="curve" smooth="yes"/>
      <point x="237.837" y="400.088"/>
      <point x="437.17" y="200.754"/>
    </contour>
    <contour>
      <point x="722.076" y="420.296" type="curve" smooth="yes"/>
      <point x="811.64" y="420.296"/>
      <point x="837.087" y="508.528"/>
      <point x="840.08" y="519.755" type="curve"/>
      <point x="903.364" y="456.471" type="line"/>
      <point x="873.677" y="389.61"/>
      <point x="796.588" y="323.248"/>
      <point x="701.536" y="323.248" type="curve" smooth="yes"/>
      <point x="549.271" y="323.248"/>
      <point x="425.362" y="461.626"/>
      <point x="425.362" y="631.771" type="curve" smooth="yes"/>
      <point x="425.362" y="816.636"/>
      <point x="542.95" y="966.988"/>
      <point x="696.963" y="966.988" type="curve" smooth="yes"/>
      <point x="778.708" y="966.988"/>
      <point x="819.955" y="928.069"/>
      <point x="820.122" y="927.986" type="curve" smooth="yes"/>
      <point x="820.122" y="966.988" type="line"/>
      <point x="889.894" y="966.988" type="line"/>
      <point x="889.894" y="769.816" type="line"/>
      <point x="819.706" y="769.816" type="line"/>
      <point x="819.706" y="769.816"/>
      <point x="818.791" y="868.943"/>
      <point x="722.076" y="868.943" type="curve" smooth="yes"/>
      <point x="668.188" y="868.943"/>
      <point x="624.447" y="827.529"/>
      <point x="624.447" y="774.807" type="curve" smooth="yes"/>
      <point x="624.447" y="515.763" type="line" smooth="yes"/>
      <point x="624.447" y="463.04"/>
      <point x="668.688" y="420.296"/>
    </contour>
  </outline>
</glyph>
<glyph name="guillemotleft" format="1">
  <advance width="972"/>
  <unicode hex="00AB"/>
  <outline>
    <contour>
      <point x="567.65" y="986.5" type="line"/>
      <point x="340.041" y="492.056" type="line"/>
      <point x="567.65" y="0" type="line"/>
      <point x="932.057" y="0" type="line"/>
      <point x="601.329" y="492.056" type="line"/>
      <point x="932.057" y="986.5" type="line"/>
    </contour>
    <contour>
      <point x="281.081" y="986.5" type="line"/>
      <point x="0" y="492.056" type="line"/>
      <point x="281.081" y="0" type="line"/>
      <point x="455.467" y="0" type="line"/>
      <point x="227.859" y="492.056" type="line"/>
      <point x="455.467" y="986.5" type="line"/>
    </contour>
  </outline>
</glyph>
<glyph name="plusminus" format="1">
  <advance width="1148"/>
  <unicode hex="00B1"/>
  <outline>
    <contour>
      <point x="674.842" y="752.091" type="line"/>
      <point x="1068.6" y="752.091" type="line"/>
      <point x="1068.6" y="551.011" type="line"/>
      <point x="674.842" y="551.011" type="line"/>
      <point x="674.842" y="317.665" type="line"/>
      <point x="473.763" y="317.665" type="line"/>
      <point x="473.763" y="551.011" type="line"/>
      <point x="80" y="551.011" type="line"/>
      <point x="80" y="752.091" type="line"/>
      <point x="473.763" y="752.091" type="line"/>
      <point x="473.763" y="985.438" type="line"/>
      <point x="674.842" y="985.438" type="line"/>
    </contour>
    <contour>
      <point x="80" y="0" type="line"/>
      <point x="80" y="201.081" type="line"/>
      <point x="1068.52" y="201.081" type="line"/>
      <point x="1068.52" y="0" type="line"/>
    </contour>
  </outline>
</glyph>
<glyph name="uni00B3" format="1">
  <advance width="657"/>
  <unicode hex="00B3"/>
  <outline>
    <contour>
      <point x="376.784" y="869.816" type="curve"/>
      <point x="424.393" y="865.496"/>
      <point x="567.885" y="824.534"/>
      <point x="567.802" y="663.012" type="curve" smooth="yes"/>
      <point x="567.802" y="533.81"/>
      <point x="467.432" y="414.912"/>
      <point x="258.301" y="414.912" type="curve" smooth="yes"/>
      <point x="165.824" y="414.912"/>
      <point x="99.2715" y="443.827"/>
      <point x="50" y="475.483" type="curve"/>
      <point x="50" y="587.9" type="line"/>
      <point x="75.9229" y="568.126"/>
      <point x="111.319" y="552.09"/>
      <point x="158.264" y="552.09" type="curve" smooth="yes"/>
      <point x="233.79" y="552.09"/>
      <point x="296.354" y="615.319"/>
      <point x="296.354" y="687.106" type="curve" smooth="yes"/>
      <point x="296.354" y="833.923"/>
      <point x="137.74" y="819.133"/>
      <point x="137.74" y="819.133" type="curve"/>
      <point x="137.74" y="920.5" type="line"/>
      <point x="137.74" y="920.5"/>
      <point x="296.354" y="921.995"/>
      <point x="296.354" y="1041.31" type="curve" smooth="yes"/>
      <point x="296.354" y="1131.96"/>
      <point x="233.79" y="1187.54"/>
      <point x="158.264" y="1187.54" type="curve" smooth="yes"/>
      <point x="111.319" y="1187.54"/>
      <point x="75.9229" y="1171.51"/>
      <point x="50" y="1151.73" type="curve"/>
      <point x="50" y="1264.15" type="line"/>
      <point x="99.2715" y="1295.72"/>
      <point x="165.824" y="1324.72"/>
      <point x="258.301" y="1324.72" type="curve" smooth="yes"/>
      <point x="467.432" y="1324.72"/>
      <point x="567.802" y="1205.82"/>
      <point x="567.802" y="1076.62" type="curve" smooth="yes"/>
      <point x="567.802" y="913.688"/>
      <point x="424.393" y="874.137"/>
    </contour>
  </outline>
</glyph>
<glyph name="paragraph" format="1">
  <advance width="1182"/>
  <unicode hex="00B6"/>
  <outline>
    <contour>
      <point x="501.289" y="1289.48" type="curve" smooth="yes"/>
      <point x="1102.08" y="1289.48" type="line"/>
      <point x="1102.08" y="0" type="line"/>
      <point x="900.997" y="0" type="line"/>
      <point x="900.997" y="1094.13" type="line"/>
      <point x="700" y="1094.13" type="line"/>
      <point x="700" y="0" type="line"/>
      <point x="503.45" y="0" type="line"/>
      <point x="501.289" y="501.456" type="line"/>
      <point x="131.477" y="501.456"/>
      <point x="80" y="810.146"/>
      <point x="80" y="888.648" type="curve" smooth="yes"/>
      <point x="80" y="1116.75"/>
      <point x="271.519" y="1289.48"/>
    </contour>
  </outline>
</glyph>
<glyph name="Eth" format="1">
  <advance width="1420"/>
  <unicode hex="00D0"/>
  <outline>
    <contour>
      <point x="140" y="417" type="line"/>
      <point x="140" y="570.965" type="line"/>
      <point x="882" y="570.965" type="line"/>
      <point x="882" y="417" type="line"/>
    </contour>
  </outline>
</glyph>
<glyph name="multiply" format="1">
  <advance width="1116"/>
  <unicode hex="00D7"/>
  <outline>
    <contour>
      <point x="682.243" y="494.052" type="line"/>
      <point x="1036.17" y="0" type="line"/>
      <point x="788.688" y="0" type="line"/>
      <point x="558.169" y="321.163" type="line"/>
      <point x="327.733" y="0" type="line"/>
      <point x="80.249" y="0" type="line"/>
      <point x="434.178" y="494.052" type="line"/>
      <point x="80" y="986.5" type="line"/>
      <point x="327.483" y="986.5" type="line"/>
      <point x="558.169" y="664.921" type="line"/>
      <point x="788.938" y="986.5" type="line"/>
      <point x="1036.42" y="986.5" type="line"/>
    </contour>
  </outline>
</glyph>
<glyph name="thorn" format="1">
  <advance width="1164"/>
  <unicode hex="00FE"/>
  <outline>
    <contour>
      <point x="475.428" y="883.864" type="line"/>
      <point x="475.428" y="883.864"/>
      <point x="574.385" y="989.885"/>
      <point x="718.708" y="989.885" type="curve" smooth="yes"/>
      <point x="988.991" y="989.885"/>
      <point x="1084.88" y="700.323"/>
      <point x="1084.88" y="452.391" type="curve" smooth="yes"/>
      <point x="1084.88" y="166.652"/>
      <point x="926.26" y="-32.8408"/>
      <point x="699.183" y="-32.8408" type="curve" smooth="yes"/>
      <point x="553.28" y="-32.8408"/>
      <point x="475.428" y="66.1992"/>
      <point x="475.428" y="66.1992" type="curve"/>
      <point x="475.345" y="-296.893" type="line"/>
      <point x="105.604" y="-296.893" type="line"/>
      <point x="105.521" y="1112.44" type="line"/>
      <point x="0" y="1112.44" type="line"/>
      <point x="0" y="1290.31" type="line"/>
      <point x="475.345" y="1289.48" type="line"/>
    </contour>
    <contour>
      <point x="673.093" y="290.37" type="curve"/>
      <point x="673.176" y="290.37" type="line"/>
      <point x="673.176" y="656.62" type="line" smooth="yes"/>
      <point x="673.176" y="734.058"/>
      <point x="610.195" y="797.038"/>
      <point x="532.923" y="797.038" type="curve" smooth="yes"/>
      <point x="475.428" y="798.034" type="line"/>
      <point x="475.428" y="149.204" type="line"/>
      <point x="532.758" y="150.035" type="line" smooth="yes"/>
      <point x="610.112" y="150.035"/>
      <point x="673.093" y="213.016"/>
    </contour>
  </outline>
</glyph>
<glyph name="hbar" format="1">
  <advance width="1167"/>
  <unicode hex="0127"/>
  <outline>
    <contour>
      <point x="491.119" y="890.51" type="line"/>
      <point x="491.119" y="890.51"/>
      <point x="563.713" y="1008.82"/>
      <point x="724.968" y="1009.1" type="curve" smooth="yes"/>
      <point x="950.782" y="1009.1"/>
      <point x="1047.2" y="888.848"/>
      <point x="1047.2" y="607.619" type="curve" smooth="yes"/>
      <point x="1046.93" y="0" type="line"/>
      <point x="677.866" y="0" type="line"/>
      <point x="677.866" y="666.081" type="line" smooth="yes"/>
      <point x="677.866" y="740.336"/>
      <point x="619.681" y="798.522"/>
      <point x="545.148" y="798.522" type="curve" smooth="yes"/>
      <point x="490.288" y="799.353" type="line"/>
      <point x="490.288" y="-0.554688" type="line"/>
      <point x="120.396" y="-0.554688" type="line"/>
      <point x="120" y="1289.48" type="line"/>
      <point x="490.288" y="1289.48" type="line"/>
    </contour>
  </outline>
</glyph>
<glyph name="Iogonek" format="1">
  <advance width="735"/>
  <unicode hex="012E"/>
  <outline>
    <contour>
      <point x="644.873" y="1099.15" type="line"/>
      <point x="539.032" y="1099.15" type="line"/>
      <point x="539.032" y="184.53" type="line"/>
      <point x="644.873" y="184.53" type="line"/>
      <point x="644.873" y="0" type="line"/>
      <point x="561.048" y="0" type="line"/>
      <point x="424.753" y="0" type="line"/>
      <point x="305.048" y="-74"/>
      <point x="303.048" y="-296.893"/>
      <point x="488.048" y="-296.893" type="curve" smooth="yes"/>
      <point x="588.999" y="-296.893"/>
      <point x="645" y="-212.393"/>
      <point x="645" y="-212.393" type="curve"/>
      <point x="645.083" y="-108.782" type="line"/>
      <point x="645.083" y="-108.782"/>
      <point x="537.651" y="-212.559"/>
      <point x="475.585" y="-146.338" type="curve" smooth="yes"/>
      <point x="441.013" y="-109.451"/>
      <point x="443.048" y="0"/>
      <point x="561.048" y="0" type="curve" smooth="yes"/>
      <point x="424.753" y="0" type="line"/>
      <point x="50" y="0" type="line"/>
      <point x="50" y="184.53" type="line"/>
      <point x="155.563" y="184.53" type="line"/>
      <point x="155.563" y="1099.15" type="line"/>
      <point x="50" y="1099.15" type="line"/>
      <point x="50" y="1289.48" type="line"/>
      <point x="644.873" y="1289.48" type="line"/>
    </contour>
  </outline>
</glyph>
<glyph name="dotlessi" format="1">
  <advance width="715"/>
  <unicode hex="0131"/>
  <outline>
    <contour>
      <point x="120" y="986.5" type="line"/>
      <point x="595.457" y="986.5" type="line"/>
      <point x="595.457" y="0" type="line"/>
      <point x="225.842" y="0" type="line"/>
      <point x="225.842" y="815.979" type="line"/>
      <point x="120" y="815.979" type="line"/>
    </contour>
  </outline>
</glyph>
<glyph name="lslash" format="1">
  <advance width="724"/>
  <unicode hex="0142"/>
  <outline>
    <contour>
      <point x="488.555" y="972.125" type="line"/>
      <point x="634.291" y="1077.81" type="line"/>
      <point x="634.291" y="841.512" type="line"/>
      <point x="488.555" y="736.156" type="line"/>
      <point x="488.555" y="0" type="line"/>
      <point x="105.604" y="0" type="line"/>
      <point x="105.604" y="459.142" type="line"/>
      <point x="0" y="382.785" type="line"/>
      <point x="0" y="617.757" type="line"/>
      <point x="105.604" y="694.363" type="line"/>
      <point x="105.604" y="1099.08" type="line"/>
      <point x="0" y="1099.08" type="line"/>
      <point x="0" y="1289.48" type="line"/>
      <point x="488.555" y="1289.48" type="line"/>
    </contour>
  </outline>
</glyph>
<glyph name="Tbar" format="1">
  <advance width="1232"/>
  <unicode hex="0166"/>
  <outline>
    <contour>
      <point x="0" y="1289.48" type="line"/>
      <point x="1142.2" y="1289.48" type="line"/>
      <point x="1142.2" y="647.71" type="line"/>
      <point x="762.744" y="647.71" type="line"/>
      <point x="762.744" y="0" type="line"/>
      <point x="762.411" y="0" type="line"/>
      <point x="762.411" y="-0.332031" type="line"/>
      <point x="379.793" y="-0.332031" type="line"/>
      <point x="379.793" y="0" type="line"/>
      <point x="379.46" y="0" type="line"/>
      <point x="379.46" y="647.71" type="line"/>
      <point x="0" y="647.71" type="line"/>
    </contour>
    <contour>
      <point x="194.176" y="842.052" type="curve"/>
      <point x="194.176" y="841.969" type="line"/>
      <point x="379.46" y="841.969" type="line"/>
      <point x="379.46" y="1095.05" type="line"/>
      <point x="194.176" y="1095.05" type="line" smooth="yes"/>
      <point x="159.278" y="1091.15"/>
      <point x="145.735" y="1073.95"/>
      <point x="145.735" y="1054.01" type="curve" smooth="yes"/>
      <point x="145.735" y="883.098" type="line" smooth="yes"/>
      <point x="145.735" y="863.156"/>
      <point x="159.361" y="846.04"/>
    </contour>
    <contour>
      <point x="948.028" y="842.052" type="line" smooth="yes"/>
      <point x="982.842" y="845.957"/>
      <point x="996.469" y="863.156"/>
      <point x="996.469" y="883.181" type="curve" smooth="yes"/>
      <point x="996.469" y="1054.09" type="line" smooth="yes"/>
      <point x="996.469" y="1074.03"/>
      <point x="982.842" y="1091.15"/>
      <point x="948.028" y="1095.14" type="curve" smooth="yes"/>
      <point x="762.744" y="1095.14" type="line"/>
      <point x="762.744" y="842.052" type="line"/>
    </contour>
  </outline>
</glyph>
<glyph name="tbar" format="1">
  <advance width="667"/>
  <unicode hex="0167"/>
  <outline>
    <contour>
      <point x="447.373" y="227.273" type="line" smooth="yes"/>
      <point x="447.373" y="117.454"/>
      <point x="511.748" y="108.929"/>
      <point x="531.472" y="108.856" type="curve" smooth="yes"/>
      <point x="551.63" y="108.856"/>
      <point x="572.871" y="116.009"/>
      <point x="587.538" y="127.136" type="curve"/>
      <point x="587.538" y="32.5596" type="line"/>
      <point x="573.232" y="23.168"/>
      <point x="497.37" y="-23"/>
      <point x="392.318" y="-23" type="curve" smooth="yes"/>
      <point x="320.936" y="-23"/>
      <point x="262.99" y="-5.51562"/>
      <point x="220.074" y="28.9473" type="curve" smooth="yes"/>
      <point x="137.059" y="95.6348"/>
      <point x="126.438" y="217.521"/>
      <point x="126.438" y="316.286" type="curve" smooth="yes"/>
      <point x="126.438" y="686.856" type="line"/>
      <point x="31.9346" y="686.856" type="line"/>
      <point x="31.9346" y="844.723" type="line"/>
      <point x="126.438" y="844.723" type="line"/>
      <point x="126.438" y="950.497" type="line"/>
      <point x="447.662" y="1077.3" type="line"/>
      <point x="447.59" y="844.723" type="line"/>
      <point x="537.107" y="844.723" type="line"/>
      <point x="537.107" y="686.856" type="line"/>
      <point x="447.518" y="686.856" type="line"/>
    </contour>
    <contour>
      <point x="0" y="450.165" type="line"/>
      <point x="0" y="604.13" type="line"/>
      <point x="587.538" y="604.13" type="line"/>
      <point x="587.538" y="450.165" type="line"/>
    </contour>
  </outline>
</glyph>
<glyph name="uni02BF" format="1">
  <advance width="0"/>
  <unicode hex="02BF"/>
  <outline>
    <contour>
      <point x="325.163" y="1245.44" type="curve"/>
      <point x="325.163" y="1383.32" type="line"/>
      <point x="325.163" y="1383.32"/>
      <point x="26.5156" y="1398.79"/>
      <point x="26.5156" y="1137" type="curve" smooth="yes"/>
      <point x="26.5156" y="868.394"/>
      <point x="325.163" y="890.847"/>
      <point x="325.163" y="890.847" type="curve"/>
      <point x="325.163" y="1029.72" type="line"/>
      <point x="325.163" y="1029.72"/>
      <point x="199.758" y="1014.34"/>
      <point x="199.758" y="1137.08" type="curve" smooth="yes"/>
      <point x="199.758" y="1261.07"/>
      <point x="325.163" y="1245.44"/>
    </contour>
    <contour>
      <point x="333.415" y="1315.28" type="move" smooth="yes"/>
    </contour>
  </outline>
</glyph>
<glyph name="tildecomb" format="1">
  <advance width="0"/>
  <unicode hex="0303"/>
  <outline>
    <contour>
      <point x="-463.389" y="1280.1" type="curve" smooth="yes"/>
      <point x="-463.473" y="1296.15" type="line"/>
      <point x="-352.62" y="1296.15" type="line"/>
      <point x="-352.62" y="1258.23" type="line" smooth="yes"/>
      <point x="-352.62" y="1133.4"/>
      <point x="-450.998" y="1086.5"/>
      <point x="-530" y="1086.5" type="curve" smooth="yes"/>
      <point x="-606.839" y="1086.5"/>
      <point x="-703.305" y="1145.71"/>
      <point x="-703.305" y="1145.71" type="curve"/>
      <point x="-758.106" y="1174.4"/>
      <point x="-778.48" y="1133.82"/>
      <point x="-779.063" y="1102.3" type="curve" smooth="yes"/>
      <point x="-778.979" y="1086.33" type="line"/>
      <point x="-889.832" y="1086.33" type="line"/>
      <point x="-889.832" y="1124.25" type="line" smooth="yes"/>
      <point x="-889.832" y="1249.33"/>
      <point x="-791.454" y="1295.98"/>
      <point x="-712.452" y="1295.98" type="curve" smooth="yes"/>
      <point x="-642.598" y="1295.98"/>
      <point x="-539.147" y="1236.77"/>
      <point x="-539.147" y="1236.77" type="curve"/>
      <point x="-481.601" y="1209.91"/>
      <point x="-463.389" y="1248.83"/>
    </contour>
  </outline>
</glyph>
<glyph name="uni030C" format="1">
  <advance width="0"/>
  <unicode hex="030C"/>
  <outline>
    <contour>
      <point x="-344" y="1086.5" type="line"/>
      <point x="-149.987" y="1415.9" type="line"/>
      <point x="-303.251" y="1415.9" type="line"/>
      <point x="-391.151" y="1269.95" type="line"/>
      <point x="-479.218" y="1415.9" type="line"/>
      <point x="-632.481" y="1415.9" type="line"/>
      <point x="-438.386" y="1086.5" type="line"/>
    </contour>
    <contour>
      <point x="-220.704" y="1371.21" type="move" smooth="yes"/>
    </contour>
  </outline>
</glyph>
<glyph name="quoteleft" format="1">
  <advance width="555"/>
  <unicode hex="2018"/>
  <outline>
    <contour>
      <point x="437.135" y="1174.63" type="curve" smooth="yes"/>
      <point x="437.135" y="1083.48"/>
      <point x="363.156" y="1009.5"/>
      <point x="272" y="1009.5" type="curve" smooth="yes"/>
      <point x="180.844" y="1009.5"/>
      <point x="109.636" y="1083.76"/>
      <point x="102.432" y="1174.63" type="curve" smooth="yes"/>
      <point x="91.625" y="1315.11"/>
      <point x="197.745" y="1402.67"/>
      <point x="244.016" y="1444.78" type="curve"/>
      <point x="410.259" y="1444.78" type="line"/>
      <point x="373.963" y="1421.23"/>
      <point x="316.054" y="1379.95"/>
      <point x="290.286" y="1338.11" type="curve"/>
      <point x="372.577" y="1328.96"/>
      <point x="437.135" y="1259.7"/>
    </contour>
  </outline>
</glyph>
<glyph name="bullet" format="1">
  <advance width="458"/>
  <unicode hex="2022"/>
  <outline>
    <contour>
      <point x="229.451" y="686.451" type="curve" smooth="yes"/>
      <point x="334.074" y="686.451"/>
      <point x="418.901" y="601.624"/>
      <point x="418.901" y="497" type="curve" smooth="yes"/>
      <point x="418.901" y="392.377"/>
      <point x="334.074" y="307.55"/>
      <point x="229.451" y="307.55" type="curve" smooth="yes"/>
      <point x="124.827" y="307.55"/>
      <point x="40" y="392.377"/>
      <point x="40" y="497" type="curve" smooth="yes"/>
      <point x="40" y="601.624"/>
      <point x="124.827" y="686.451"/>
    </contour>
  </outline>
</glyph>
<glyph name="uni2038" format="1">
  <advance width="0"/>
  <unicode hex="2038"/>
  <outline>
    <contour>
      <point x="468.987" y="293.411" type="line"/>
      <point x="663" y="-35.9844" type="line"/>
      <point x="509.736" y="-35.9844" type="line"/>
      <point x="421.836" y="109.961" type="line"/>
      <point x="333.77" y="-35.9844" type="line"/>
      <point x="180.506" y="-35.9844" type="line"/>
      <point x="374.602" y="293.411" type="line"/>
    </contour>
  </outline>
</glyph>
<glyph name="guilsinglleft" format="1">
  <advance width="685"/>
  <unicode hex="2039"/>
  <outline>
    <contour>
      <point x="645.403" y="0" type="line"/>
      <point x="261.288" y="492.056" type="line"/>
      <point x="645.403" y="986.5" type="line"/>
      <point x="281.08" y="986.5" type="line"/>
      <point x="0" y="492.056" type="line"/>
      <point x="281.08" y="0" type="line"/>
    </contour>
  </outline>
</glyph>
<glyph name="acutecomb.cap" format="1">
  <advance width="653"/>
  <outline>
    <contour>
      <point x="251.793" y="1717.26" type="line"/>
      <point x="101.896" y="1389.48" type="line"/>
      <point x="236" y="1389.48" type="line"/>
      <point x="475.114" y="1718.92" type="line"/>
    </contour>
  </outline>
</glyph>
<glyph name="f_b" format="1">
  <advance width="1863"/>
  <outline>
    <contour>
      <point x="1372.11" y="320.573" type="curve" smooth="yes"/>
      <point x="1372.11" y="686.862" type="line" smooth="yes"/>
      <point x="1372.11" y="764.442"/>
      <point x="1308.93" y="827.338"/>
      <point x="1231.63" y="827.338" type="curve" smooth="yes"/>
      <point x="1174.28" y="828.169" type="line"/>
      <point x="1174.28" y="178.989" type="line"/>
      <point x="1231.63" y="180.097" type="line" smooth="yes"/>
      <point x="1309.21" y="180.097"/>
      <point x="1372.11" y="242.992"/>
    </contour>
    <contour>
      <point x="1398.15" y="1010.48" type="curve" smooth="yes"/>
      <point x="1625.35" y="1010.48"/>
      <point x="1784.11" y="810.713"/>
      <point x="1783.83" y="524.775" type="curve" smooth="yes"/>
      <point x="1783.83" y="127.73"/>
      <point x="1586.56" y="-13.0225"/>
      <point x="1417.55" y="-13.0225" type="curve" smooth="yes"/>
      <point x="1268.76" y="-13.0225"/>
      <point x="1174.28" y="93.0967"/>
      <point x="1174.28" y="93.0967" type="curve"/>
      <point x="1174" y="0" type="line"/>
      <point x="804.108" y="0" type="line"/>
      <point x="804.108" y="1076.33" type="line" smooth="yes"/>
      <point x="801.532" y="1087.9"/>
      <point x="779.614" y="1170.91"/>
      <point x="681" y="1170.91" type="curve" smooth="yes"/>
      <point x="658.28" y="1170.91"/>
      <point x="556.011" y="1160.93"/>
      <point x="556.011" y="1034.59" type="curve" smooth="yes"/>
      <point x="556.011" y="981.113" type="line"/>
      <point x="663.515" y="981.113" type="line"/>
      <point x="663.515" y="809.327" type="line"/>
      <point x="556.011" y="809.327" type="line"/>
      <point x="556.287" y="0" type="line"/>
      <point x="186.673" y="0" type="line"/>
      <point x="186.673" y="809.327" type="line"/>
      <point x="80" y="809.327" type="line"/>
      <point x="80" y="981.113" type="line"/>
      <point x="191.661" y="981.113" type="line"/>
      <point x="190.829" y="1041.24" type="line" smooth="yes"/>
      <point x="190.178" y="1088.33"/>
      <point x="205.515" y="1324.72"/>
      <point x="492.562" y="1324.72" type="curve" smooth="yes"/>
      <point x="1174" y="1324.72" type="line"/>
      <point x="1174.28" y="911.291" type="line"/>
      <point x="1174.28" y="911.291"/>
      <point x="1245.21" y="1010.48"/>
    </contour>
  </outline>
</glyph>
<glyph name="f_f_b" format="1">
  <advance width="2427"/>
  <outline>
    <contour>
      <point x="1936.11" y="320.573" type="curve" smooth="yes"/>
      <point x="1936.11" y="686.862" type="line" smooth="yes"/>
      <point x="1936.11" y="764.442"/>
      <point x="1872.93" y="827.338"/>
      <point x="1795.63" y="827.338" type="curve" smooth="yes"/>
      <point x="1738.28" y="828.169" type="line"/>
      <point x="1738.28" y="178.989" type="line"/>
      <point x="1795.63" y="180.097" type="line" smooth="yes"/>
      <point x="1873.21" y="180.097"/>
      <point x="1936.11" y="242.992"/>
    </contour>
    <contour>
      <point x="1962.15" y="1010.48" type="curve" smooth="yes"/>
      <point x="2189.35" y="1010.48"/>
      <point x="2348.11" y="810.713"/>
      <point x="2347.83" y="524.775" type="curve" smooth="yes"/>
      <point x="2347.83" y="127.73"/>
      <point x="2150.56" y="-13.0225"/>
      <point x="1981.55" y="-13.0225" type="curve" smooth="yes"/>
      <point x="1832.76" y="-13.0225"/>
      <point x="1738.28" y="93.0967"/>
      <point x="1738.28" y="93.0967" type="curve"/>
      <point x="1738" y="0" type="line"/>
      <point x="1368.11" y="0" type="line"/>
      <point x="1368.11" y="1076.33" type="line" smooth="yes"/>
      <point x="1365.53" y="1087.9"/>
      <point x="1343.61" y="1170.91"/>
      <point x="1245" y="1170.91" type="curve" smooth="yes"/>
      <point x="1222.28" y="1170.91"/>
      <point x="1120.01" y="1160.93"/>
      <point x="1120.01" y="1034.59" type="curve" smooth="yes"/>
      <point x="1120.01" y="981.113" type="line"/>
      <point x="1227.51" y="981.113" type="line"/>
      <point x="1227.51" y="809.327" type="line"/>
      <point x="1120.01" y="809.327" type="line"/>
      <point x="1120.29" y="0" type="line"/>
      <point x="750.673" y="0" type="line"/>
      <point x="750.673" y="809.327" type="line"/>
      <point x="556.011" y="809.327" type="line"/>
      <point x="556.287" y="0" type="line"/>
      <point x="186.673" y="0" type="line"/>
      <point x="186.673" y="809.327" type="line"/>
      <point x="80" y="809.327" type="line"/>
      <point x="80" y="981.113" type="line"/>
      <point x="191.661" y="981.113" type="line"/>
      <point x="190.829" y="1041.24" type="line" smooth="yes"/>
      <point x="190.178" y="1088.33"/>
      <point x="205.515" y="1324.72"/>
      <point x="492.562" y="1324.72" type="curve" smooth="yes"/>
      <point x="613.642" y="1324.72"/>
      <point x="700.919" y="1269.54"/>
      <point x="717.267" y="1258.74" type="curve"/>
      <point x="717.267" y="1149.85" type="line"/>
      <point x="700.365" y="1162.6"/>
      <point x="675.982" y="1170.91"/>
      <point x="652.709" y="1170.91" type="curve" smooth="yes"/>
      <point x="629.989" y="1170.91"/>
      <point x="556.011" y="1160.93"/>
      <point x="556.011" y="1034.59" type="curve" smooth="yes"/>
      <point x="556.011" y="981.113" type="line"/>
      <point x="755.661" y="981.113" type="line"/>
      <point x="754.829" y="1041.24" type="line" smooth="yes"/>
      <point x="754.178" y="1088.33"/>
      <point x="769.515" y="1324.72"/>
      <point x="1056.56" y="1324.72" type="curve" smooth="yes"/>
      <point x="1738" y="1324.72" type="line"/>
      <point x="1738.28" y="911.291" type="line"/>
      <point x="1738.28" y="911.291"/>
      <point x="1809.21" y="1010.48"/>
    </contour>
  </outline>
</glyph>
<glyph name="f_f_h" format="1">
  <advance width="2384"/>
  <outline>
    <contour>
      <point x="1738.83" y="890.51" type="line"/>
      <point x="1738.83" y="890.51"/>
      <point x="1811.42" y="1008.82"/>
      <point x="1972.68" y="1009.1" type="curve" smooth="yes"/>
      <point x="2198.49" y="1009.1"/>
      <point x="2294.92" y="888.848"/>
      <point x="2294.92" y="607.619" type="curve" smooth="yes"/>
      <point x="2294.64" y="0" type="line"/>
      <point x="1925.58" y="0" type="line"/>
      <point x="1925.58" y="666.081" type="line" smooth="yes"/>
      <point x="1925.58" y="740.336"/>
      <point x="1867.39" y="798.522"/>
      <point x="1792.86" y="798.522" type="curve" smooth="yes"/>
      <point x="1738" y="799.353" type="line"/>
      <point x="1738" y="-0.554688" type="line"/>
      <point x="1368.11" y="-0.554688" type="line"/>
      <point x="1367.3" y="1079.06" type="line"/>
      <point x="1362.21" y="1098.21"/>
      <point x="1336.93" y="1170.35"/>
      <point x="1245" y="1170.35" type="curve" smooth="yes"/>
      <point x="1222.28" y="1170.35"/>
      <point x="1120.01" y="1160.38"/>
      <point x="1120.01" y="1034.03" type="curve" smooth="yes"/>
      <point x="1120.01" y="980.559" type="line"/>
      <point x="1227.51" y="980.559" type="line"/>
      <point x="1227.51" y="808.772" type="line"/>
      <point x="1120.01" y="808.772" type="line"/>
      <point x="1120.29" y="-0.554688" type="line"/>
      <point x="750.673" y="-0.554688" type="line"/>
      <point x="750.673" y="808.772" type="line"/>
      <point x="556.011" y="808.772" type="line"/>
      <point x="556.287" y="-0.554688" type="line"/>
      <point x="186.673" y="-0.554688" type="line"/>
      <point x="186.673" y="808.772" type="line"/>
      <point x="80" y="808.772" type="line"/>
      <point x="80" y="980.559" type="line"/>
      <point x="191.661" y="980.559" type="line"/>
      <point x="190.829" y="1040.68" type="line" smooth="yes"/>
      <point x="190.178" y="1087.78"/>
      <point x="205.515" y="1324.17"/>
      <point x="492.562" y="1324.17" type="curve" smooth="yes"/>
      <point x="613.642" y="1324.17"/>
      <point x="700.919" y="1268.99"/>
      <point x="717.267" y="1258.19" type="curve"/>
      <point x="717.267" y="1149.29" type="line"/>
      <point x="700.365" y="1162.04"/>
      <point x="675.982" y="1170.35"/>
      <point x="652.709" y="1170.35" type="curve" smooth="yes"/>
      <point x="629.989" y="1170.35"/>
      <point x="556.011" y="1160.38"/>
      <point x="556.011" y="1034.03" type="curve" smooth="yes"/>
      <point x="556.011" y="980.559" type="line"/>
      <point x="755.661" y="980.559" type="line"/>
      <point x="754.829" y="1040.68" type="line" smooth="yes"/>
      <point x="754.178" y="1087.78"/>
      <point x="769.515" y="1324.17"/>
      <point x="1056.56" y="1324.17" type="curve" smooth="yes"/>
      <point x="1738" y="1324.17" type="line"/>
    </contour>
  </outline>
</glyph>
<glyph name="f_f_j" format="1">
  <advance width="1773"/>
  <outline>
    <contour>
      <point x="754.344" y="1041.24" type="line" smooth="yes"/>
      <point x="753.692" y="1088.33"/>
      <point x="769.029" y="1324.72"/>
      <point x="1056.08" y="1324.72" type="curve" smooth="yes"/>
      <point x="1177.16" y="1324.72"/>
      <point x="1264.43" y="1269.54"/>
      <point x="1280.78" y="1258.74" type="curve"/>
      <point x="1280.78" y="1149.85" type="line"/>
      <point x="1263.88" y="1162.6"/>
      <point x="1239.5" y="1170.91"/>
      <point x="1216.22" y="1170.91" type="curve" smooth="yes"/>
      <point x="1193.5" y="1170.91"/>
      <point x="1119.53" y="1160.93"/>
      <point x="1119.53" y="1034.59" type="curve" smooth="yes"/>
      <point x="1119.53" y="981.113" type="line"/>
      <point x="1682.97" y="981" type="line"/>
      <point x="1683.76" y="130.35" type="line" smooth="yes"/>
      <point x="1683.76" y="-157.252"/>
      <point x="1526.66" y="-296.896"/>
      <point x="1203.59" y="-296.896" type="curve" smooth="yes"/>
      <point x="1071.98" y="-296.896"/>
      <point x="960.876" y="-259.215"/>
      <point x="881.356" y="-187.453" type="curve"/>
      <point x="952.563" y="-108.764" type="line"/>
      <point x="997.449" y="-149.771"/>
      <point x="1062.56" y="-173.876"/>
      <point x="1128.5" y="-173.876" type="curve" smooth="yes"/>
      <point x="1244.6" y="-173.876"/>
      <point x="1313.87" y="-89.9238"/>
      <point x="1313.87" y="50.8291" type="curve" smooth="yes"/>
      <point x="1313.87" y="809.121" type="line"/>
      <point x="1119.53" y="809.327" type="line"/>
      <point x="1119.8" y="0" type="line"/>
      <point x="750.188" y="0" type="line"/>
      <point x="750.188" y="809.327" type="line"/>
      <point x="556.011" y="809.327" type="line"/>
      <point x="556.287" y="0" type="line"/>
      <point x="186.673" y="0" type="line"/>
      <point x="186.673" y="809.327" type="line"/>
      <point x="80" y="809.327" type="line"/>
      <point x="80" y="981.113" type="line"/>
      <point x="191.661" y="981.113" type="line"/>
      <point x="190.829" y="1041.24" type="line" smooth="yes"/>
      <point x="190.178" y="1088.33"/>
      <point x="205.515" y="1324.72"/>
      <point x="492.562" y="1324.72" type="curve" smooth="yes"/>
      <point x="613.642" y="1324.72"/>
      <point x="700.919" y="1269.54"/>
      <point x="717.267" y="1258.74" type="curve"/>
      <point x="717.267" y="1149.85" type="line"/>
      <point x="700.365" y="1162.6"/>
      <point x="675.982" y="1170.91"/>
      <point x="652.709" y="1170.91" type="curve" smooth="yes"/>
      <point x="629.989" y="1170.91"/>
      <point x="556.011" y="1160.93"/>
      <point x="556.011" y="1034.59" type="curve" smooth="yes"/>
      <point x="556.011" y="981.113" type="line"/>
      <point x="755.176" y="981.113" type="line"/>
    </contour>
  </outline>
</glyph>
<glyph name="f_h" format="1">
  <advance width="1820"/>
  <outline>
    <contour>
      <point x="1174.83" y="890.51" type="line"/>
      <point x="1174.83" y="890.51"/>
      <point x="1247.42" y="1008.82"/>
      <point x="1408.68" y="1009.1" type="curve" smooth="yes"/>
      <point x="1634.49" y="1009.1"/>
      <point x="1730.92" y="888.848"/>
      <point x="1730.92" y="607.619" type="curve" smooth="yes"/>
      <point x="1730.64" y="0" type="line"/>
      <point x="1361.58" y="0" type="line"/>
      <point x="1361.58" y="666.081" type="line" smooth="yes"/>
      <point x="1361.58" y="740.336"/>
      <point x="1303.39" y="798.522"/>
      <point x="1228.86" y="798.522" type="curve" smooth="yes"/>
      <point x="1174" y="799.353" type="line"/>
      <point x="1174" y="-0.554688" type="line"/>
      <point x="804.108" y="-0.554688" type="line"/>
      <point x="803.301" y="1079.06" type="line"/>
      <point x="798.211" y="1098.21"/>
      <point x="772.935" y="1170.35"/>
      <point x="681" y="1170.35" type="curve" smooth="yes"/>
      <point x="658.28" y="1170.35"/>
      <point x="556.011" y="1160.38"/>
      <point x="556.011" y="1034.03" type="curve" smooth="yes"/>
      <point x="556.011" y="980.559" type="line"/>
      <point x="663.515" y="980.559" type="line"/>
      <point x="663.515" y="808.772" type="line"/>
      <point x="556.011" y="808.772" type="line"/>
      <point x="556.287" y="-0.554688" type="line"/>
      <point x="186.673" y="-0.554688" type="line"/>
      <point x="186.673" y="808.772" type="line"/>
      <point x="80" y="808.772" type="line"/>
      <point x="80" y="980.559" type="line"/>
      <point x="191.661" y="980.559" type="line"/>
      <point x="190.829" y="1040.68" type="line" smooth="yes"/>
      <point x="190.178" y="1087.78"/>
      <point x="205.515" y="1324.17"/>
      <point x="492.562" y="1324.17" type="curve" smooth="yes"/>
      <point x="1174" y="1324.17" type="line"/>
    </contour>
  </outline>
</glyph>
<glyph name="f_i" format="1">
  <advance width="1209"/>
  <outline>
    <contour>
      <point x="190.829" y="1041.24" type="line" smooth="yes"/>
      <point x="190.178" y="1088.33"/>
      <point x="205.515" y="1324.72"/>
      <point x="492.562" y="1324.72" type="curve" smooth="yes"/>
      <point x="613.642" y="1324.72"/>
      <point x="700.919" y="1269.54"/>
      <point x="717.267" y="1258.74" type="curve"/>
      <point x="717.267" y="1149.85" type="line"/>
      <point x="700.365" y="1162.6"/>
      <point x="675.982" y="1170.91"/>
      <point x="652.709" y="1170.91" type="curve" smooth="yes"/>
      <point x="629.989" y="1170.91"/>
      <point x="556.011" y="1160.93"/>
      <point x="556.011" y="1034.59" type="curve" smooth="yes"/>
      <point x="556.011" y="981.113" type="line"/>
      <point x="1119.46" y="981" type="line"/>
      <point x="1119.46" y="0" type="line"/>
      <point x="749.842" y="0" type="line"/>
      <point x="749.842" y="809" type="line"/>
      <point x="556.011" y="809.327" type="line"/>
      <point x="556.287" y="0" type="line"/>
      <point x="186.673" y="0" type="line"/>
      <point x="186.673" y="809.327" type="line"/>
      <point x="80" y="809.327" type="line"/>
      <point x="80" y="981.113" type="line"/>
      <point x="191.661" y="981.113" type="line"/>
    </contour>
  </outline>
</glyph>
<glyph name="f_k" format="1">
  <advance width="1927"/>
  <outline>
    <contour>
      <point x="1640.59" y="986.931" type="line"/>
      <point x="1857.82" y="986.931" type="line"/>
      <point x="1567.44" y="663.311" type="line"/>
      <point x="1786.88" y="0" type="line"/>
      <point x="1420.32" y="0" type="line"/>
      <point x="1297.02" y="362.133" type="line"/>
      <point x="1174" y="217.777" type="line"/>
      <point x="1174" y="0" type="line"/>
      <point x="804.108" y="0" type="line"/>
      <point x="804.108" y="1076.33" type="line" smooth="yes"/>
      <point x="801.532" y="1087.9"/>
      <point x="779.614" y="1170.91"/>
      <point x="681" y="1170.91" type="curve" smooth="yes"/>
      <point x="658.28" y="1170.91"/>
      <point x="556.011" y="1160.93"/>
      <point x="556.011" y="1034.59" type="curve" smooth="yes"/>
      <point x="556.011" y="981.113" type="line"/>
      <point x="663.515" y="981.113" type="line"/>
      <point x="663.515" y="809.327" type="line"/>
      <point x="556.011" y="809.327" type="line"/>
      <point x="556.287" y="0" type="line"/>
      <point x="186.673" y="0" type="line"/>
      <point x="186.673" y="809.327" type="line"/>
      <point x="80" y="809.327" type="line"/>
      <point x="80" y="981.113" type="line"/>
      <point x="191.661" y="981.113" type="line"/>
      <point x="190.829" y="1041.24" type="line" smooth="yes"/>
      <point x="190.178" y="1088.33"/>
      <point x="205.515" y="1324.72"/>
      <point x="492.562" y="1324.72" type="curve" smooth="yes"/>
      <point x="1174" y="1324.72" type="line"/>
      <point x="1174" y="469.914" type="line"/>
    </contour>
  </outline>
</glyph>
<glyph name="uni030A.cap" format="1">
  <advance width="0"/>
  <outline>
    <contour>
      <point x="-468" y="1741.95" type="curve" smooth="yes"/>
      <point x="-377.855" y="1741.95"/>
      <point x="-304.426" y="1668.61"/>
      <point x="-304.426" y="1578.29" type="curve" smooth="yes"/>
      <point x="-304.426" y="1488.15"/>
      <point x="-377.772" y="1414.72"/>
      <point x="-468" y="1414.72" type="curve" smooth="yes"/>
      <point x="-558.312" y="1414.72"/>
      <point x="-631.659" y="1488.07"/>
      <point x="-631.659" y="1578.29" type="curve" smooth="yes"/>
      <point x="-631.659" y="1668.52"/>
      <point x="-558.229" y="1741.95"/>
    </contour>
    <contour>
      <point x="-381.658" y="1578.29" type="curve" smooth="yes"/>
      <point x="-381.658" y="1625.96"/>
      <point x="-420.423" y="1664.63"/>
      <point x="-467.993" y="1664.63" type="curve" smooth="yes"/>
      <point x="-515.661" y="1664.63"/>
      <point x="-554.427" y="1625.96"/>
      <point x="-554.427" y="1578.29" type="curve" smooth="yes"/>
      <point x="-554.427" y="1530.72"/>
      <point x="-515.661" y="1492.05"/>
      <point x="-467.993" y="1492.05" type="curve" smooth="yes"/>
      <point x="-420.423" y="1492.05"/>
      <point x="-381.658" y="1530.72"/>
    </contour>
  </outline>
</glyph>
